<svg xmlns="http://www.w3.org/2000/svg" width="68" height="68" viewBox="0 0 68 68">
  <path fill="currentColor" d="m 1,1 c 0,0 5,10 5,11.2 0,1.14 -5,6.8 -5,7.8 0,1 4.58,6.34 4.84,8.5 C 6.09,30.67 2,36 2,37 c 0,1 3.81,2.6 4,5 0.19,2.4 -4,6 -4,7 0,1 4,8 4,9 0,1 -5,9 -5,9 0,0 7.38,-2.06 8.27,-2.32 0.89,-0.25 7.46,1.83 8.73,1.32 1.27,-0.51 7.68,-3.48 8.31,-2.72 0.64,0.76 4.83,3.57 6.49,3.18 1.65,-0.38 6.36,-2.8 7.25,-2.42 0.89,0.38 6.05,2.34 7.95,1.96 1.91,-0.38 7.49,-1.73 8,-3 0.51,-1.27 11,4 11,4 l -5,-10 c 0,-3 3.07,-4.46 4,-7 l -4,-6 5,-7 -5.08,-6.2 4.08,-3.8 -4,-5 4,-8 -4.33,-4.73 L 67,1 l -13,3 -8,-2 -7.61,3.32 -5.21,-3.18 -6.61,3.06 -6.23,-3.69 L 11,4 z"/>
</svg>
